<?xml version="1.0" standalone="no"?><!DOCTYPE svg PUBLIC "-//W3C//DTD SVG 1.1//EN" "http://www.w3.org/Graphics/SVG/1.1/DTD/svg11.dtd"><svg t="1770308095335" class="icon" viewBox="0 0 1024 1024" version="1.1" xmlns="http://www.w3.org/2000/svg" p-id="8763" xmlns:xlink="http://www.w3.org/1999/xlink" width="16" height="16"><path d="M864 192H704V96c0-17.706667-14.293333-32-32-32H352c-8.96 0-17.173333 3.733333-22.933333 9.706667L137.706667 265.066667c-5.973333 5.76-9.706667 13.973333-9.706667 22.933333v512c0 17.706667 14.293333 32 32 32h160v96c0 17.706667 14.293333 32 32 32h512c17.706667 0 32-14.293333 32-32V224c0-17.706667-14.293333-32-32-32z m-544-18.773333V256h-82.773333l82.773333-82.773333zM192 768V320h160c17.706667 0 32-14.293333 32-32V128h256v64h-96c-8.96 0-17.173333 3.733333-22.933333 9.706667L329.706667 393.066667c-5.973333 5.76-9.706667 13.973333-9.706667 22.933333v352H192z m320-466.773333V384h-82.773333l82.773333-82.773333zM832 896H384V448h160c17.706667 0 32-14.293333 32-32V256h256v640z" p-id="8764"></path></svg>